<?xml version="1.0" encoding="utf-8"?>
<!-- Generator: Adobe Illustrator 27.9.6, SVG Export Plug-In . SVG Version: 9.03 Build 54986)  -->
<svg version="1.1" id="Layer_1" xmlns="http://www.w3.org/2000/svg" xmlns:xlink="http://www.w3.org/1999/xlink" x="0px" y="0px"
	 viewBox="0 0 30.669 30.669" style="enable-background:new 0 0 30.669 30.669;" xml:space="preserve">
<style type="text/css">
	.st0{fill:#FFFFFF;}
	.st1{fill:#E8272E;}
</style>
<g>
	<circle class="st0" cx="15.335" cy="15.335" r="15.335"/>
	<g>
		<path class="st1" d="M15.335,24.329c-0.668,0-1.226-0.233-1.674-0.699c-0.449-0.466-0.674-1.042-0.674-1.728
			c0-0.703,0.225-1.288,0.674-1.754c0.449-0.466,1.007-0.699,1.674-0.699c0.668,0,1.226,0.233,1.674,0.699
			c0.449,0.466,0.674,1.051,0.674,1.754c0,0.686-0.225,1.262-0.674,1.728C16.56,24.096,16.002,24.329,15.335,24.329z M14.068,17.92
			l-0.554-8.071L13.383,6.34h3.903l-0.131,3.508l-0.554,8.071H14.068z"/>
	</g>
</g>
</svg>
