<?xml version="1.0" encoding="utf-8"?>
<!-- Generator: Adobe Illustrator 27.9.6, SVG Export Plug-In . SVG Version: 9.03 Build 54986)  -->
<svg version="1.1" id="Layer_1" xmlns="http://www.w3.org/2000/svg" xmlns:xlink="http://www.w3.org/1999/xlink" x="0px" y="0px"
	 viewBox="0 0 32 32" style="enable-background:new 0 0 32 32;" xml:space="preserve">
<style type="text/css">
	.st0{fill-rule:evenodd;clip-rule:evenodd;fill:#E8272E;}
	.st1{fill:#FFFFFF;}
</style>
<g>
	<circle class="st0" cx="16" cy="16" r="16"/>
	<g>
		<path class="st1" d="M21.624,7.984c-0.035-0.168-0.129-0.318-0.264-0.423c-0.109-0.075-0.238-0.112-0.37-0.106h-0.106
			l-0.582,0.106c0,0.502-0.133,0.979-0.424,1.376c-0.37,0.529-0.9,0.873-1.534,1.005l-6.56,1.217
			c-0.16,0.026-0.292,0.053-0.424,0.053c-1.002-0.002-1.898-0.624-2.25-1.562L8.607,9.73C8.439,9.765,8.289,9.859,8.184,9.994
			c-0.106,0.132-0.132,0.317-0.106,0.476l2.752,14.947c0.053,0.344,0.397,0.582,0.767,0.53l12.275-2.25
			c0.168-0.035,0.318-0.129,0.423-0.264c0.106-0.132,0.133-0.318,0.106-0.503L21.624,7.984z M15.514,21.476l-3.308-2.248l0.98-1.456
			l1.851,1.27l4.074-5.952l1.455,0.979l-5.053,7.407L15.514,21.476z"/>
		<path class="st1" d="M10.513,8.116l0.159,0.794c0.053,0.344,0.397,0.582,0.767,0.53L18,8.221c0.168-0.035,0.318-0.129,0.423-0.264
			c0.106-0.133,0.133-0.318,0.106-0.503L18.37,6.66c-0.035-0.168-0.129-0.318-0.264-0.423c-0.109-0.075-0.238-0.112-0.37-0.106
			H17.63L11.069,7.35C10.699,7.43,10.46,7.773,10.513,8.116L10.513,8.116z"/>
	</g>
</g>
</svg>
