<svg xmlns="http://www.w3.org/2000/svg" width="18" height="20" viewBox="0 0 18 20">
    <g fill="#FFF" fill-rule="evenodd">
        <path fill="none" d="M-1 0h20v20H-1z"/>
        <g fill-rule="nonzero">
            <path d="M16.071 5.438H13.91V.957c0-.287-.24-.52-.535-.52a.528.528 0 0 0-.536.52v9.875H5.162V.958c0-.287-.24-.52-.536-.52a.528.528 0 0 0-.535.52v4.48H1.929c-1.006 0-1.82.793-1.822 1.77v7.773c.001.978.816 1.77 1.822 1.771H6.52v2.186H5.038a.528.528 0 0 0-.536.52c0 .288.24.521.536.521h7.928a.528.528 0 0 0 .536-.52c0-.288-.24-.521-.536-.521H11.48v-2.186h4.592c1.006-.001 1.82-.793 1.822-1.77V7.207c-.001-.977-.816-1.77-1.822-1.77zm-5.663 13.5H7.592v-2.186h2.816v2.186zm6.428-5.528H1.17V7.208a.72.72 0 0 1 .223-.518.761.761 0 0 1 .536-.21H4.09v4.353H3.043a.528.528 0 0 0-.536.521c0 .288.24.521.536.521h11.914a.528.528 0 0 0 .536-.52c0-.288-.24-.522-.536-.522H13.91V6.48h2.162a.74.74 0 0 1 .75.73l.015 6.201z"/>
            <path d="M6.875 9.819h3.98c.282 0 .51-.217.51-.485V9.27c-.003-1.024-.687-1.932-1.703-2.26.58-.34.853-1.007.668-1.633-.186-.626-.784-1.058-1.466-1.058-.681 0-1.28.432-1.465 1.058-.186.626.087 1.293.667 1.634-1.015.327-1.7 1.235-1.702 2.259v.064c0 .129.054.252.15.343a.521.521 0 0 0 .36.142zM9.464 2.554V.49c0-.26-.224-.47-.5-.47s-.5.21-.5.47v2.062c0 .259.224.469.5.469s.5-.21.5-.469v.002zM11.607.958a.51.51 0 0 0-.5-.52.51.51 0 0 0-.5.52v1.459c0 .287.224.52.5.52a.51.51 0 0 0 .5-.52V.958zM6.821 2.94a.51.51 0 0 0 .5-.521V.96a.51.51 0 0 0-.5-.52.51.51 0 0 0-.5.52V2.42c0 .287.224.52.5.52z"/>
        </g>
    </g>
</svg>
