<svg xmlns="http://www.w3.org/2000/svg" width="14" height="20" viewBox="0 0 14 20">
    <g fill="#FFF" fill-rule="nonzero">
        <path d="M12.388 9.701V7.944c0-2.732-2.334-4.954-5.202-4.954v1.852c1.797 0 3.257 1.391 3.257 3.102v1.66H3.928v-1.66H1.984V9.65C.854 9.861 0 10.77 0 11.851v5.73c0 1.282.993 2.24 2.308 2.24h9.206c1.37 0 2.486-1.008 2.486-2.247v-5.722a2.196 2.196 0 0 0-1.612-2.15zm-3.93 6.92H5.542v-3.905h2.916v3.904zM3.723 6.107a2.947 2.947 0 0 1 0-2.374 3.16 3.16 0 0 1 1.762-1.679L4.74.344C3.458.85 2.458 1.801 1.926 3.023a4.706 4.706 0 0 0 0 3.792l1.797-.71z"/>
    </g>
</svg>
